<svg width="20" height="20" viewBox="0 0 20 20" fill="none" xmlns="http://www.w3.org/2000/svg">
<circle cx="10" cy="10" r="10" fill="#20ABBE" fill-opacity="0.1"/>
<path d="M10.0017 11.387L7.00878 8.33046C6.92657 8.2463 6.81665 8.2 6.69945 8.2C6.58218 8.2 6.47232 8.2463 6.38998 8.33046L6.12787 8.59829C6.0454 8.68232 6 8.79465 6 8.91435C6 9.03405 6.0454 9.14625 6.12787 9.23035L9.69119 12.8697C9.77379 12.9541 9.88416 13.0003 10.0015 13C10.1193 13.0003 10.2296 12.9542 10.3123 12.8697L13.8721 9.23373C13.9546 9.14964 14 9.03744 14 8.91767C14 8.79797 13.9546 8.68578 13.8721 8.60162L13.61 8.33385C13.4394 8.15961 13.1617 8.15961 12.9912 8.33385L10.0017 11.387Z" fill="#20ABBE"/>
</svg>
